<svg xmlns="http://www.w3.org/2000/svg" viewBox="0 0 512 512"><rect width="512" height="512" rx="112" fill="#0f0f10"/><rect x="74" y="74" width="76" height="76" rx="16" fill="#fafafa" fill-opacity="0.42"/><rect x="170" y="74" width="76" height="76" rx="16" fill="#fafafa" fill-opacity="0.59"/><rect x="266" y="74" width="76" height="76" rx="16" fill="#fafafa" fill-opacity="0.78"/><rect x="362" y="74" width="76" height="76" rx="16" fill="#fafafa" fill-opacity="1.00"/><rect x="74" y="170" width="76" height="76" rx="16" fill="#fafafa" fill-opacity="0.29"/><rect x="170" y="170" width="76" height="76" rx="16" fill="#fafafa" fill-opacity="0.42"/><rect x="266" y="170" width="76" height="76" rx="16" fill="#fafafa" fill-opacity="0.59"/><rect x="362" y="170" width="76" height="76" rx="16" fill="#fafafa" fill-opacity="0.78"/><rect x="74" y="266" width="76" height="76" rx="16" fill="#fafafa" fill-opacity="0.19"/><rect x="170" y="266" width="76" height="76" rx="16" fill="#fafafa" fill-opacity="0.29"/><rect x="266" y="266" width="76" height="76" rx="16" fill="#fafafa" fill-opacity="0.42"/><rect x="362" y="266" width="76" height="76" rx="16" fill="#fafafa" fill-opacity="0.59"/><rect x="74" y="362" width="76" height="76" rx="16" fill="#fafafa" fill-opacity="0.14"/><rect x="170" y="362" width="76" height="76" rx="16" fill="#fafafa" fill-opacity="0.19"/><rect x="266" y="362" width="76" height="76" rx="16" fill="#fafafa" fill-opacity="0.29"/><rect x="362" y="362" width="76" height="76" rx="16" fill="#fafafa" fill-opacity="0.42"/></svg>